<?xml version="1.0" standalone="no"?>
<!DOCTYPE svg PUBLIC "-//W3C//DTD SVG 20010904//EN"
 "http://www.w3.org/TR/2001/REC-SVG-20010904/DTD/svg10.dtd">
<svg version="1.0" xmlns="http://www.w3.org/2000/svg"
 width="505.000000pt" height="494.000000pt" viewBox="0 0 505.000000 494.000000"
 preserveAspectRatio="xMidYMid meet">

<g transform="translate(0.000000,494.000000) scale(0.100000,-0.100000)"
fill="#000000" stroke="none">
<path d="M1146 4445 c18 -28 28 -75 15 -75 -5 0 -11 -6 -14 -12 -2 -7 -3 -5
-2 4 2 9 -3 25 -10 34 -20 29 -27 -86 -11 -186 16 -100 43 -209 55 -224 5 -6
11 -28 15 -49 4 -21 14 -41 22 -44 7 -3 14 -11 14 -19 0 -20 33 -94 42 -94 5
0 8 -6 8 -14 0 -8 11 -28 25 -44 14 -17 25 -35 25 -41 0 -6 4 -11 8 -11 4 0
15 -12 24 -27 21 -35 94 -113 105 -113 5 0 20 -10 33 -22 14 -13 28 -22 32
-21 12 4 10 -15 -2 -22 -16 -10 -12 -25 8 -25 14 0 15 2 2 10 -13 9 -13 10 0
10 24 0 43 -17 35 -30 -6 -10 -1 -12 19 -8 14 3 26 1 26 -3 0 -5 9 -9 20 -9
11 0 20 -5 20 -11 0 -6 9 -8 20 -4 11 3 20 2 20 -3 0 -10 80 -49 92 -45 5 2 8
-3 8 -11 0 -8 9 -18 20 -21 11 -4 42 -26 68 -50 26 -25 51 -45 55 -45 8 0 57
-98 57 -115 0 -6 -20 -42 -45 -80 -28 -44 -41 -73 -35 -79 6 -6 17 -1 30 15
38 46 42 50 46 46 6 -5 -16 -68 -34 -94 -16 -25 -65 -33 -56 -10 3 8 -2 14
-10 14 -8 0 -12 -6 -9 -14 3 -9 0 -11 -10 -8 -8 4 -24 -5 -38 -22 -13 -16 -35
-36 -48 -45 -23 -16 -23 -18 -5 -24 77 -29 184 -78 218 -101 35 -23 38 -28 20
-31 -11 -2 -42 6 -68 18 -59 25 -86 25 -31 0 l40 -19 -50 0 c-52 -1 -117 17
-137 37 -18 18 -28 14 -28 -12 0 -13 -7 -27 -16 -30 -9 -3 -236 -6 -506 -6
-456 0 -492 -1 -504 -17 -11 -15 -13 -179 -14 -879 0 -777 -2 -862 -16 -868
-9 -3 -70 -6 -136 -6 -115 0 -120 -1 -115 -20 7 -25 237 -355 257 -367 9 -6
655 -11 1685 -14 l1669 -4 144 165 c175 201 180 208 161 221 -8 5 -75 9 -150
8 -75 -1 -141 1 -148 5 -9 6 -11 210 -7 872 4 795 3 866 -12 884 -16 19 -32
20 -457 21 -300 1 -464 5 -515 14 -41 7 -66 13 -54 14 21 1 67 30 48 31 -22 0
-144 -42 -140 -49 3 -4 -27 -4 -67 1 -39 4 -76 4 -81 -1 -6 -4 -22 -5 -36 -1
l-25 6 33 18 c19 10 31 20 28 23 -3 3 -24 -6 -47 -22 -40 -26 -45 -27 -133
-21 -50 3 -91 6 -91 6 0 0 0 13 0 29 0 26 2 28 16 15 20 -18 37 -18 74 2 17 8
62 19 100 23 70 8 121 27 142 53 19 23 27 80 12 89 -10 6 -9 10 5 15 19 7 24
3 70 -60 12 -16 29 -26 45 -27 20 0 6 -10 -54 -39 -86 -42 -94 -52 -17 -21 79
31 121 43 132 36 5 -3 10 1 10 9 0 15 -12 21 -33 17 -5 -1 -5 4 -1 10 3 6 2
14 -3 18 -45 31 -173 251 -173 298 0 48 77 146 140 178 19 10 37 21 40 24 12
14 49 29 90 36 25 4 50 11 55 15 6 4 26 10 45 13 63 10 145 31 150 38 3 4 12
7 20 7 35 -2 48 3 46 18 0 10 14 22 40 32 22 10 51 27 64 40 13 12 31 22 41
22 9 0 29 16 43 35 16 21 32 33 39 29 7 -4 9 -4 5 0 -3 4 8 23 25 41 66 69 87
96 87 110 0 8 4 15 9 15 5 0 12 14 16 31 4 17 13 33 21 36 8 3 14 16 14 28 0
13 6 30 14 38 19 19 47 103 51 152 2 22 5 51 8 65 12 51 18 160 10 160 -4 0
-23 -28 -41 -63 -34 -65 -53 -92 -115 -159 -21 -23 -51 -56 -66 -74 -56 -63
-253 -174 -310 -174 -9 0 -45 -14 -81 -31 -36 -17 -75 -33 -88 -35 -84 -16
-257 -149 -317 -244 -59 -94 -105 -192 -111 -240 -6 -44 -9 -50 -30 -50 -13 0
-24 -4 -24 -10 0 -5 -9 -10 -19 -10 -11 0 -23 5 -26 10 -4 6 5 10 19 10 14 0
26 5 26 12 0 6 9 22 21 34 15 16 22 39 25 82 2 32 11 81 19 108 8 27 15 62 15
77 0 39 46 137 65 137 8 0 17 11 20 25 3 14 8 37 11 52 l6 28 -21 -27 c-12
-14 -21 -34 -22 -45 0 -11 -2 -13 -6 -5 -19 47 -145 -250 -168 -394 l-6 -41
-87 30 c-108 38 -225 42 -312 11 -53 -18 -57 -24 -51 -62 0 -4 36 -14 79 -21
42 -7 91 -20 109 -28 29 -13 34 -13 55 1 25 18 58 21 58 6 0 -6 27 -10 60 -10
62 0 64 -1 131 -63 31 -28 32 -31 14 -37 -20 -7 -20 -7 0 -12 11 -3 -10 -6
-47 -7 -65 -1 -67 -2 -112 -46 -31 -31 -47 -58 -52 -83 -4 -20 -10 -41 -14
-47 -4 -5 -10 -40 -13 -77 -3 -37 -8 -71 -10 -75 -3 -5 -32 -6 -65 -5 -68 4
-69 6 -82 92 -8 61 -3 91 11 68 7 -11 11 -10 20 2 8 11 12 12 16 3 8 -20 32
-15 30 6 -1 20 -77 59 -77 39 0 -26 -37 3 -59 47 -20 38 -37 56 -73 75 -44 23
-50 24 -95 12 -26 -7 -61 -22 -76 -33 l-28 -21 15 31 c9 17 25 35 36 41 18 9
19 18 14 68 -8 87 -22 147 -43 194 -143 320 -145 323 -371 413 -135 54 -221
117 -333 246 -30 34 -84 128 -92 159 -1 3 -5 13 -10 23 -4 10 -3 23 2 28 5 5
20 -8 38 -37 16 -25 39 -54 52 -64 13 -10 23 -23 23 -29 0 -6 5 -11 10 -11 6
0 10 -7 10 -15 0 -8 4 -15 10 -15 5 0 27 -17 49 -37 82 -78 218 -162 239 -149
5 3 15 -1 22 -9 7 -8 17 -12 22 -9 6 4 5 10 -3 15 -11 7 -10 9 4 9 9 0 17 6
17 13 0 6 8 2 18 -9 15 -19 26 -21 79 -19 47 2 63 0 67 -11 3 -8 11 -14 18
-12 17 4 78 -40 78 -56 0 -7 9 -21 20 -31 28 -25 25 -5 -5 39 -37 55 -62 79
-74 72 -6 -4 -9 -1 -5 7 7 18 -77 62 -226 118 -133 50 -208 90 -283 151 -56
45 -185 194 -201 232 -9 21 -9 21 -16 -4 l-8 -25 -1 25 c-2 44 -12 68 -31 73
-18 5 -18 3 -4 -18z m54 -135 c0 -5 6 -10 14 -10 14 0 32 -18 25 -24 -2 -2
-14 -6 -25 -10 -15 -5 -23 -2 -28 11 -3 10 -9 24 -12 31 -3 7 1 12 10 12 9 0
16 -4 16 -10z m1467 -1052 c-8 -4 -23 -5 -33 -1 -16 6 -16 7 2 13 26 10 52 0
31 -12z m-467 -288 c30 -21 68 -92 76 -143 5 -32 5 -32 -17 8 -57 106 -141
134 -207 68 -22 -21 -25 -8 -8 25 32 62 101 81 156 42z m550 5 c32 -17 50 -43
50 -74 0 -20 -1 -20 -47 5 -70 37 -122 18 -176 -66 -30 -47 -29 -28 4 43 44
96 101 127 169 92z m-555 -76 c11 -17 -1 -21 -15 -4 -8 9 -8 15 -2 15 6 0 14
-5 17 -11z m555 -9 c0 -5 -2 -10 -4 -10 -3 0 -8 5 -11 10 -3 6 -1 10 4 10 6 0
11 -4 11 -10z m-840 -70 c0 -6 7 -10 15 -10 8 0 38 -13 67 -28 69 -36 145 -62
183 -62 32 0 90 -32 78 -43 -3 -4 -46 -7 -95 -7 -71 0 -93 4 -108 18 -10 9
-66 41 -124 71 -58 29 -106 56 -106 60 0 3 20 7 45 8 25 1 45 -2 45 -7z m540
-100 c0 -5 -12 -10 -26 -10 -14 0 -23 4 -19 10 3 6 15 10 26 10 10 0 19 -4 19
-10z m537 -46 c-3 -3 -12 -4 -19 -1 -8 3 -5 6 6 6 11 1 17 -2 13 -5z m-1202
-34 c111 6 425 4 610 -5 94 -4 293 -10 443 -12 152 -3 272 -9 272 -14 0 -5 20
-9 45 -9 25 0 45 4 45 8 0 5 53 9 118 10 66 1 118 6 120 12 5 13 39 13 47 0 4
-6 62 -10 140 -10 83 0 136 -4 140 -11 5 -6 26 -8 60 -4 56 7 148 -10 165 -30
14 -17 30 -136 24 -177 -5 -25 -3 -38 5 -38 6 0 11 -18 11 -45 0 -25 -4 -45
-9 -45 -14 0 -24 -130 -26 -356 -1 -116 -5 -216 -8 -221 -5 -8 -8 -353 -4
-593 1 -105 -5 -364 -10 -420 -9 -104 -1 -102 -324 -102 -148 1 -315 -4 -372
-10 -119 -12 -259 -17 -597 -21 -135 -2 -289 -7 -342 -12 -72 -6 -98 -5 -98 4
0 14 -37 14 -46 0 -5 -9 -38 -10 -118 -4 -207 14 -261 17 -331 14 -75 -3 -118
-3 -150 0 -11 2 -54 0 -95 -3 -41 -3 -62 -2 -46 2 16 4 -108 8 -276 8 l-307 1
-26 28 c-14 16 -27 38 -30 49 -16 75 -24 140 -24 196 -1 36 -6 103 -12 150
-11 83 -12 492 -2 600 3 30 7 253 9 495 2 297 7 447 15 461 12 23 67 51 120
60 18 3 43 10 54 14 20 9 83 13 454 24 107 4 197 9 200 12 3 3 24 2 46 -3 22
-4 72 -6 110 -3z m2349 -1837 l23 -18 -18 -43 c-22 -50 -44 -76 -59 -67 -11 7
-14 128 -3 138 11 12 33 8 57 -10z m-3437 -51 c3 -22 2 -62 -2 -89 -8 -47 -8
-47 -19 -20 -5 15 -13 27 -18 27 -13 0 -9 115 4 128 17 17 29 1 35 -46z"/>
<path d="M3791 4283 c-136 -185 -217 -232 -566 -329 -55 -15 -107 -33 -115
-39 -27 -21 -44 -29 -36 -17 4 7 3 12 -3 12 -5 0 -13 -5 -16 -10 -9 -15 37
-29 58 -18 9 5 45 11 80 13 34 2 80 9 102 15 22 6 60 16 85 21 25 6 59 16 75
24 100 44 123 56 150 79 17 14 33 26 37 26 13 0 117 113 112 121 -3 5 6 14 20
20 14 7 23 16 20 20 -3 5 4 19 15 31 12 12 26 34 33 49 7 15 16 25 22 22 5 -3
6 -1 2 5 -14 23 -33 11 -75 -45z"/>
<path d="M2930 3790 c-9 -6 -10 -10 -3 -10 6 0 15 5 18 10 8 12 4 12 -15 0z"/>
<path d="M2900 3750 c0 -5 5 -10 10 -10 6 0 10 5 10 10 0 6 -4 10 -10 10 -5 0
-10 -4 -10 -10z"/>
<path d="M2108 3392 c-21 -4 -22 -7 -7 -33 7 -13 7 -25 1 -32 -13 -16 -3 -77
13 -77 7 0 22 8 34 18 19 15 20 21 10 57 -15 52 -30 72 -51 67z"/>
<path d="M2449 2968 c-4 -15 -3 -58 2 -58 14 0 31 30 25 45 -4 12 -24 21 -27
13z"/>
<path d="M3015 2764 c-22 -10 -25 -13 -10 -13 28 1 61 14 49 21 -5 3 -22 -1
-39 -8z"/>
<path d="M1760 2750 c0 -5 6 -10 13 -10 6 0 23 -3 37 -6 18 -4 16 -1 -9 10
-39 19 -41 19 -41 6z"/>
<path d="M2800 2730 c-8 -5 -10 -10 -5 -10 6 0 17 5 25 10 8 5 11 10 5 10 -5
0 -17 -5 -25 -10z"/>
</g>
</svg>
